<svg xmlns="http://www.w3.org/2000/svg" width="96" height="96" fill="none" viewBox="0 0 96 96" id="currency-exchange"><path stroke="#000" stroke-linecap="round" stroke-width="5" d="M22 64L17.4142 59.4142C16.6332 58.6332 15.3668 58.6332 14.5858 59.4142L10 64M74 32L78.5858 36.5858C79.3668 37.3668 80.6332 37.3668 81.4142 36.5858L86 32M16 68L16 81C16 83.7614 18.2386 86 21 86L34 86M80 28L80 15C80 12.2386 77.7614 10 75 10L62 10"></path><ellipse cx="28.5" cy="29" stroke="#000" stroke-width="5" rx="19.5" ry="19"></ellipse><ellipse cx="66.5" cy="67" stroke="#000" stroke-width="5" rx="19.5" ry="19"></ellipse><path fill="#000" d="M28.8829 16C29.6321 16 30.0067 16.4374 30.0067 17.3121V18.6243C31.9108 18.7539 33.4404 19.3533 34.5953 20.4224C34.9699 20.7464 35.1572 21.1352 35.1572 21.5888C35.1572 21.9776 35.0167 22.3178 34.7358 22.6093C34.4548 22.8685 34.1271 22.9981 33.7525 22.9981C33.4091 22.9981 33.0658 22.8847 32.7224 22.6579C31.942 21.9776 31.0368 21.5726 30.0067 21.443V26.643C30.8183 26.8374 31.6767 27.129 32.5819 27.5178C33.5184 27.9065 34.3144 28.4897 34.9699 29.2673C35.6566 30.0449 36 31.0978 36 32.4262C36 34.0137 35.4381 35.3259 34.3144 36.3626C33.2219 37.367 31.786 37.9502 30.0067 38.1121V40.6878C30.0067 41.5626 29.6321 42 28.8829 42C28.1338 42 27.7592 41.5626 27.7592 40.6878V38.0636C26.6355 37.934 25.5897 37.6586 24.6221 37.2374C23.6544 36.7838 22.8896 36.1682 22.3278 35.3907C22.1093 35.0667 22 34.7265 22 34.3701C22 33.9813 22.1561 33.6411 22.4682 33.3495C22.7804 33.0255 23.1394 32.8636 23.5452 32.8636C23.7637 32.8636 23.9666 32.9121 24.1538 33.0093C24.3724 33.0741 24.544 33.2037 24.6689 33.3981C25.3868 34.2405 26.4169 34.8237 27.7592 35.1477V29.0729C26.8852 28.8785 26.0424 28.5869 25.2308 28.1981C24.4192 27.8093 23.748 27.2748 23.2174 26.5944C22.6867 25.914 22.4214 25.0555 22.4214 24.0187C22.4214 22.5607 22.8896 21.362 23.8261 20.4224C24.7938 19.4829 26.1048 18.8997 27.7592 18.6729V17.3121C27.7592 16.4374 28.1338 16 28.8829 16ZM30.0067 29.5589V35.2935C30.9119 35.1639 31.6299 34.8399 32.1605 34.3215C32.7224 33.8031 33.0033 33.1551 33.0033 32.3776C33.0033 31.5676 32.7068 30.952 32.1137 30.5308C31.5518 30.1097 30.8495 29.7857 30.0067 29.5589ZM27.7592 21.5402C26.1984 21.8318 25 22.6717 25 24C25 24.5832 25.5942 25.2084 26 25.5C26.4058 25.7916 27.01 25.8816 27.7592 26.1084V21.5402Z"></path><path stroke="#000" stroke-linecap="round" stroke-width="3" d="M60 57L67 66M67 66L74 57M67 66V78.5M61 67H73M61 72H73"></path></svg>